<svg width="80" height="80" viewBox="0 0 80 80" fill="none" xmlns="http://www.w3.org/2000/svg">
<rect x="77.5" y="2.5" width="75" height="75" rx="37.5" transform="rotate(90 77.5 2.5)" fill="#EB0A5D" stroke="white" stroke-width="5"/>
<g filter="url(#filter0_d_110_99)">
<path d="M53.4278 16.5655C53.3169 16.5476 53.2025 16.5331 53.0882 16.5221C48.4637 16.5032 45.1732 20.7674 44.091 24.8461C42.9108 28.5124 43.7403 33.6352 47.7648 35.207C48.35 35.4268 48.9879 35.4847 49.6072 35.4294C54.9222 34.6422 58.1997 29.1512 58.3261 24.1501C58.6657 20.9652 56.8652 17.1222 53.4278 16.5655ZM34.3552 13.4368C31.5512 13.0161 28.8863 15.4364 27.9833 17.9918C26.1382 23.0447 27.4035 29.9453 32.6094 32.5558C33.1047 32.7566 33.635 32.8611 34.1688 32.8725C37.9895 32.9101 40.2831 29.0673 40.7092 25.7158C41.3645 21.3111 39.9484 15.8376 35.5595 13.7991C35.1579 13.6151 34.7558 13.4969 34.3552 13.4368ZM62.9677 33.71C58.0875 33.1509 53.9422 37.3381 52.6915 41.7065C51.4907 44.8048 52.47 49.401 56.1286 50.3051C61.3036 51.1455 65.7811 46.3044 66.7489 41.6342C67.6188 38.5856 66.4286 34.4922 62.9677 33.71ZM20.5049 27.372C18.453 26.995 16.219 27.8589 15.186 29.8074C12.4277 35.0206 14.801 42.6493 20.5163 44.846C22.9132 45.6962 25.4118 44.1998 26.4191 42.0496C28.5616 37.4486 26.8764 31.3761 22.7481 28.3953C22.0844 27.8587 21.3078 27.5195 20.5049 27.372ZM40.4253 41.07C36.3952 40.3738 31.9497 41.6799 28.8146 44.2334C25.3834 47.2486 22.3612 50.9272 20.6838 55.1965C19.0294 58.1915 20.8741 62.294 24.3147 62.9186C28.4386 63.7574 32.4923 61.566 36.6495 62.0779C40.2377 62.1623 43.0534 64.5084 45.9906 66.2353C48.4686 67.8354 52.2424 68.0485 54.107 65.4391C55.6895 62.7239 54.6492 59.3514 53.7899 56.5438C51.8492 51.8913 49.7553 46.9921 45.8302 43.6126C44.2621 42.2285 42.3935 41.41 40.4253 41.07Z" fill="#A40E45"/>
</g>
<path d="M37.4302 14.0242L38.2941 26.923L34.3426 27.6147L33.4991 20.8644L32.4118 26.5366L30.8779 26.7363L28.8677 22.0524L29.5855 27.7023L25.5749 28.3486L24.181 16.281L28.6381 15.5235L31.1672 21.0617L32.7412 14.6347L37.4302 14.0242ZM48.9394 13.4476L45.7145 20.6744L46.4788 25.5915L41.9991 26.1747L41.4659 21.263L37.4341 15.2114L41.8064 14.0749L43.691 17.6584L44.7173 13.6959L48.9394 13.4476ZM21.8074 42.4353L21.9451 46.3526L14.6816 47.8833L13.3401 35.4013L17.8721 34.8112L18.2689 42.896L21.8074 42.4353ZM25.7702 34.1374L26.7056 46.0874L23.0526 46.758L21.1653 34.9851L25.7702 34.1374ZM35.7123 32.8253L36.1063 36.532L33.5227 36.9747L34.2619 45.1036L30.609 45.7742L29.2247 37.7293L26.6457 38.2069L26.2147 34.0796L35.7123 32.8253ZM45.5783 31.5407L45.9722 35.2475L43.3886 35.6902L44.1279 43.819L40.4749 44.4896L39.0907 36.4448L36.5116 36.9224L36.0806 32.795L45.5783 31.5407ZM54.7171 38.1505L54.8549 42.0679L47.5913 43.5986L46.2498 31.1165L50.7819 30.5264L51.1786 38.6112L54.7171 38.1505ZM64.5378 34.4079C64.6036 34.9134 64.6345 35.4235 64.6306 35.9381C63.6454 36.1313 62.6712 36.3645 61.7082 36.6376C60.7444 36.9049 59.7806 37.1722 58.8168 37.4395C59.0224 37.8382 59.3012 38.1416 59.6533 38.3499C60.0112 38.5574 60.4138 38.632 60.8612 38.5737C61.0937 38.5435 61.3407 38.467 61.6025 38.3443C61.87 38.2208 62.132 38.0774 62.3885 37.914C62.6441 37.7448 62.8871 37.5684 63.1172 37.3848C63.3474 37.2012 63.5446 37.0367 63.7089 36.8912L63.8057 40.9025C63.6018 41.1063 63.3741 41.2866 63.1227 41.4435C62.8772 41.5995 62.6169 41.7338 62.3421 41.8464C62.0672 41.959 61.7868 42.0517 61.5008 42.1244C61.2148 42.1971 60.9324 42.2516 60.6535 42.2879C60.0783 42.3628 59.5422 42.3528 59.0453 42.2579C58.5485 42.1631 58.0872 42.0016 57.6616 41.7734C57.2411 41.5386 56.8606 41.2484 56.5201 40.9027C56.1797 40.557 55.8841 40.1701 55.6333 39.7419C55.3826 39.3136 55.1749 38.8532 55.0103 38.3605C54.8457 37.8679 54.7298 37.363 54.6625 36.8459C54.5921 36.3055 54.5711 35.7587 54.5996 35.2055C54.628 34.6523 54.7084 34.113 54.8409 33.5876C54.9792 33.0614 55.1718 32.5666 55.4188 32.1031C55.6707 31.633 55.9793 31.2117 56.3444 30.8392C56.7095 30.4667 57.136 30.1571 57.6238 29.9104C58.1175 29.6629 58.6752 29.4988 59.2969 29.4178C59.814 29.3505 60.2941 29.3618 60.7372 29.4519C61.1853 29.5353 61.5916 29.6833 61.9561 29.8959C62.3256 30.1018 62.6551 30.3632 62.9445 30.6801C63.2397 30.9962 63.493 31.3532 63.7044 31.7511C63.9208 32.1425 64.097 32.5656 64.2331 33.0206C64.3742 33.4691 64.4757 33.9315 64.5378 34.4079ZM60.9926 34.4086C60.9714 34.2459 60.9324 34.0826 60.8756 33.9186C60.818 33.7489 60.7395 33.5996 60.64 33.4707C60.5463 33.3411 60.4299 33.241 60.2907 33.1705C60.1508 33.0942 59.9849 33.0685 59.7932 33.0935C59.5608 33.1237 59.3628 33.2145 59.1994 33.3658C59.0409 33.5105 58.9103 33.687 58.8074 33.8954C58.7038 34.098 58.6257 34.315 58.5731 34.5464C58.5205 34.7777 58.486 34.9891 58.4695 35.1803L61.0175 34.6004L60.9926 34.4086ZM35.5753 59.4801C35.6813 60.2935 35.6716 61.0364 35.5464 61.7085C35.4212 62.3807 35.2023 62.9912 34.8897 63.5401C34.5821 64.0824 34.1925 64.5615 33.7207 64.9775C33.249 65.3934 32.72 65.7548 32.1336 66.0616C31.5464 66.3625 30.911 66.6107 30.2274 66.8061C29.5496 67.0007 28.8446 67.1457 28.1125 67.241C27.8394 67.2765 27.5714 67.3055 27.3084 67.3279C27.0447 67.3445 26.7744 67.3561 26.4975 67.3626L25.2641 55.9833C25.8768 55.6967 26.5148 55.4688 27.1782 55.2997C27.8467 55.1241 28.515 54.9927 29.1832 54.9058C30.0141 54.7976 30.7933 54.8143 31.5208 54.9559C32.2483 55.0976 32.8943 55.3621 33.4588 55.7495C34.0225 56.1311 34.487 56.6349 34.8521 57.2609C35.2223 57.8804 35.4634 58.6202 35.5753 59.4801ZM30.0845 63.5985C30.4264 63.5008 30.7294 63.355 30.9937 63.161C31.263 62.9605 31.4871 62.7304 31.6661 62.4708C31.8442 62.2053 31.9692 61.9172 32.041 61.6065C32.1179 61.2893 32.1344 60.9621 32.0905 60.6251C32.0474 60.294 31.9724 59.9905 31.8656 59.7149C31.7581 59.4335 31.6123 59.1984 31.4281 59.0096C31.2433 58.8151 31.0151 58.6734 30.7435 58.5847C30.4712 58.4902 30.1484 58.4613 29.775 58.4981L30.0845 63.5985ZM46.9286 58.2501C46.9974 58.7788 47.003 59.2981 46.9452 59.8079C46.8868 60.3118 46.7693 60.7939 46.5929 61.2541C46.4223 61.7136 46.1948 62.145 45.9105 62.5484C45.6313 62.9452 45.302 63.2982 44.9228 63.6076C44.5494 63.9162 44.131 64.1746 43.6676 64.3826C43.2035 64.5848 42.7013 64.7211 42.1609 64.7915C41.638 64.8596 41.1296 64.8578 40.6358 64.7862C40.1477 64.7138 39.6819 64.5854 39.2384 64.4009C38.7941 64.2106 38.3815 63.9688 38.0006 63.6757C37.6248 63.376 37.2909 63.0354 36.999 62.6539C36.7121 62.2658 36.4708 61.8423 36.2752 61.3832C36.0853 60.9234 35.9567 60.4349 35.8894 59.9178C35.8236 59.4123 35.8203 58.9105 35.8795 58.4124C35.938 57.9084 36.0525 57.4267 36.2231 56.9672C36.3996 56.507 36.627 56.0756 36.9055 55.673C37.184 55.2704 37.5066 54.9122 37.8735 54.5986C38.2462 54.2842 38.6584 54.0237 39.1101 53.8171C39.5619 53.6106 40.0492 53.4733 40.5721 53.4052C41.4146 53.2955 42.1986 53.3264 42.9241 53.4978C43.6554 53.6685 44.2968 53.9661 44.8484 54.3907C45.4051 54.8086 45.8621 55.3459 46.2194 56.0025C46.5817 56.6526 46.8181 57.4018 46.9286 58.2501ZM43.0884 58.9805C43.0558 58.7307 42.9867 58.4945 42.8809 58.2719C42.7802 58.0427 42.6483 57.8472 42.4854 57.6852C42.3218 57.5175 42.1282 57.392 41.9046 57.3088C41.6861 57.2191 41.4433 57.1916 41.176 57.2264C40.9029 57.262 40.6653 57.3431 40.4632 57.4699C40.261 57.5967 40.0929 57.7574 39.9587 57.9522C39.8296 58.1403 39.7395 58.3559 39.6884 58.5989C39.6365 58.8361 39.6273 59.0825 39.6606 59.3382C39.6923 59.5822 39.759 59.8217 39.8605 60.0567C39.962 60.2916 40.0953 60.4988 40.2605 60.6782C40.4256 60.8576 40.6178 60.9951 40.8371 61.0906C41.0621 61.1854 41.3112 61.215 41.5843 61.1795C41.8574 61.1439 42.0946 61.0598 42.296 60.9273C42.5024 60.7881 42.6694 60.6186 42.797 60.4189C42.9239 60.2133 43.0125 59.986 43.0628 59.7372C43.1131 59.4884 43.1217 59.2362 43.0884 58.9805ZM58.6907 61.5226C58.4623 61.9009 58.1642 62.2441 57.7966 62.5519C57.429 62.8598 57.0266 63.1278 56.5895 63.3561C56.1525 63.5843 55.6985 63.7734 55.2275 63.9234C54.7559 64.0675 54.3022 64.168 53.8664 64.2247C53.0239 64.3344 52.2297 64.293 51.4837 64.1006C50.7378 63.9082 50.0734 63.5929 49.4905 63.1547C48.9126 62.71 48.4326 62.155 48.0506 61.4898C47.6685 60.8246 47.4234 60.0765 47.3152 59.2456C47.2327 58.6123 47.2252 57.9869 47.2925 57.3696C47.3599 56.7522 47.4931 56.1646 47.6923 55.6069C47.8973 55.0484 48.1661 54.526 48.4987 54.0395C48.8312 53.553 49.224 53.1208 49.677 52.7427C50.1301 52.3647 50.639 52.0532 51.2039 51.8083C51.7739 51.5568 52.3901 51.3879 53.0524 51.3017C53.3023 51.2692 53.5711 51.246 53.8588 51.2322C54.1458 51.2125 54.4321 51.2107 54.7178 51.2267C55.0086 51.2361 55.2933 51.267 55.5719 51.3193C55.8505 51.3717 56.1086 51.4474 56.346 51.5465L56.5354 54.9076C56.1942 54.8279 55.8466 54.7905 55.4927 54.7952C55.1438 54.7933 54.8038 54.814 54.4726 54.8571C54.0078 54.9176 53.5803 55.0383 53.1902 55.219C52.8052 55.3933 52.4775 55.6221 52.2071 55.9054C51.9426 56.188 51.747 56.5237 51.6203 56.9125C51.4937 57.3012 51.4617 57.7367 51.5245 58.219C51.5639 58.5211 51.6427 58.8092 51.7612 59.0833C51.8788 59.3517 52.0334 59.5856 52.2248 59.7852C52.4213 59.9783 52.6502 60.1257 52.9117 60.2276C53.1789 60.3287 53.4752 60.3581 53.8006 60.3157C54.0214 60.287 54.2442 60.2284 54.4691 60.14C54.6997 60.0509 54.8902 59.9257 55.0406 59.7643L54.9869 59.0799L52.8907 59.3174L52.6548 56.6891C53.5168 56.5474 54.3795 56.4114 55.243 56.2813C56.1057 56.1453 56.9735 56.0028 57.8463 55.8537L58.6907 61.5226Z" fill="#D5D5D5"/>
<defs>
<filter id="filter0_d_110_99" x="10.0366" y="13.3889" width="60.9858" height="62.0344" filterUnits="userSpaceOnUse" color-interpolation-filters="sRGB">
<feFlood flood-opacity="0" result="BackgroundImageFix"/>
<feColorMatrix in="SourceAlpha" type="matrix" values="0 0 0 0 0 0 0 0 0 0 0 0 0 0 0 0 0 0 127 0" result="hardAlpha"/>
<feOffset dy="4"/>
<feGaussianBlur stdDeviation="2"/>
<feComposite in2="hardAlpha" operator="out"/>
<feColorMatrix type="matrix" values="0 0 0 0 0 0 0 0 0 0 0 0 0 0 0 0 0 0 0.25 0"/>
<feBlend mode="normal" in2="BackgroundImageFix" result="effect1_dropShadow_110_99"/>
<feBlend mode="normal" in="SourceGraphic" in2="effect1_dropShadow_110_99" result="shape"/>
</filter>
</defs>
</svg>
